<svg width="22" height="36" viewBox="0 0 22 36" fill="none" xmlns="http://www.w3.org/2000/svg">
<g clip-path="url(#clip0_160_141)">
<path d="M15.3005 4.31494H4.10521C2.46968 4.31494 1.13848 5.64497 1.13848 7.27714V18.2306H0.848663C0.188553 18.2306 -0.34668 18.7646 -0.34668 19.4242V26.6631C-0.34668 27.3227 0.188553 27.8568 0.848663 27.8568H1.13848V29.1841C1.13848 30.818 2.46974 32.1463 4.10521 32.1463H19.3807C21.0153 32.1463 22.3466 30.818 22.3466 29.1841V11.3255L15.3005 4.31494ZM5.36294 24.819C5.70606 24.819 6.08647 24.7445 6.31066 24.6553L6.48185 25.5414C6.2732 25.646 5.80307 25.758 5.19169 25.758C3.45331 25.758 2.55808 24.6781 2.55808 23.2479C2.55808 21.5349 3.78169 20.5814 5.30339 20.5814C5.89285 20.5814 6.34026 20.7006 6.54157 20.8044L6.31066 21.7059C6.07918 21.6085 5.75849 21.5195 5.35571 21.5195C4.45273 21.5195 3.75163 22.0634 3.75163 23.1807C3.75163 24.1859 4.34843 24.819 5.36294 24.819ZM19.3807 30.3322H4.10521C3.47193 30.3322 2.95618 29.8173 2.95618 29.1841V27.8568H17.1961C17.8563 27.8568 18.3916 27.3227 18.3916 26.6631V19.4242C18.3916 18.7646 17.8563 18.2306 17.1961 18.2306H2.95618V7.27714C2.95618 6.64569 3.47193 6.13078 4.10521 6.13078L14.6208 6.11987V10.0009C14.6208 11.1344 15.542 12.0551 16.6782 12.0551L20.4858 12.0443L20.5287 29.1841C20.5287 29.8173 20.0139 30.3322 19.3807 30.3322ZM8.48374 23.5754C7.64811 23.2853 7.10334 22.8231 7.10334 22.0934C7.10334 21.2363 7.81941 20.5814 9.00573 20.5814C9.57247 20.5814 9.99075 20.7005 10.2887 20.8343L10.0353 21.7505C9.83402 21.654 9.47587 21.512 8.98342 21.512C8.49097 21.512 8.25226 21.7359 8.25226 21.9961C8.25226 22.3163 8.5356 22.4583 9.18478 22.7039C10.0727 23.0314 10.4904 23.4936 10.4904 24.2014C10.4904 25.0429 9.84125 25.758 8.46131 25.758C7.88682 25.758 7.31967 25.6088 7.03633 25.4522L7.2677 24.5143C7.57347 24.6708 8.04361 24.8264 8.52831 24.8264C9.05042 24.8264 9.32648 24.6107 9.32648 24.2831C9.32654 23.9703 9.08783 23.791 8.48374 23.5754ZM12.5142 23.5754C11.6787 23.2853 11.1338 22.8231 11.1338 22.0934C11.1338 21.2363 11.85 20.5814 13.0362 20.5814C13.6035 20.5814 14.0207 20.7005 14.3196 20.8343L14.0659 21.7505C13.8645 21.654 13.5065 21.512 13.014 21.512C12.5215 21.512 12.2828 21.7359 12.2828 21.9961C12.2828 22.3163 12.5661 22.4583 13.2154 22.7039C14.1033 23.0314 14.5212 23.4936 14.5212 24.2014C14.5212 25.0429 13.872 25.758 12.492 25.758C11.9174 25.758 11.3502 25.6088 11.0669 25.4522L11.2984 24.5143C11.604 24.6708 12.0742 24.8264 12.5589 24.8264C13.081 24.8264 13.3571 24.6107 13.3571 24.2831C13.357 23.9703 13.1183 23.791 12.5142 23.5754Z" fill="#2A7AE4"/>
</g>
<defs>
<clipPath id="clip0_160_141">
<rect width="22" height="35.5385" fill="white" transform="translate(0 0.461426)"/>
</clipPath>
</defs>
</svg>
