<svg width="34" height="23" viewBox="0 0 34 23" fill="none" xmlns="http://www.w3.org/2000/svg">
<path d="M8.79682 0.61336C6.82416 0.812579 5.10151 1.96883 3.75385 3.99227C2.09369 6.48445 1.02338 9.58602 0.617132 13.0782C0.492131 14.1485 0.511663 16.9962 0.648382 18.1055C0.87885 19.961 1.20307 20.9298 1.80854 21.6016C2.55072 22.4063 3.83197 22.6446 4.84369 22.168C5.73432 21.7501 7.35932 20.3438 8.8476 18.711C10.4179 16.9923 10.4648 16.9415 10.8945 16.7462L11.2968 16.5587H22.7031L23.1249 16.7579C23.4648 16.922 23.6523 17.0743 24.121 17.5899C26.7148 20.4337 28.0585 21.6524 29.2265 22.1876C29.6328 22.3751 29.7539 22.3985 30.2265 22.3985C31.9804 22.3985 32.8828 21.3048 33.2695 18.7188C33.5976 16.4766 33.5624 13.9415 33.1718 11.5977C32.496 7.52352 30.5039 3.53524 28.332 1.87899C27.1445 0.976641 26.0312 0.593829 24.5742 0.593829C22.9492 0.593829 21.3515 1.12117 19.6796 2.21102C19.4101 2.3868 18.9999 2.59774 18.7539 2.68367C18.3515 2.81649 18.2187 2.83211 16.9999 2.83211C15.7812 2.83211 15.6484 2.81649 15.246 2.68367C15.0038 2.59774 14.5976 2.39461 14.3437 2.22664C12.9023 1.28524 11.4062 0.718829 10.1679 0.632891C9.86322 0.61336 9.55073 0.593829 9.46088 0.58211C9.36713 0.574298 9.07026 0.589923 8.79682 0.61336ZM24.3164 4.50789C25.1015 4.96492 25.4179 6.02742 25.0039 6.83992C24.7148 7.40242 24.0117 7.8282 23.3749 7.8282C22.7421 7.8282 22.0742 7.36727 21.7812 6.73836C21.6484 6.44539 21.6289 6.3243 21.6523 5.92977C21.6874 5.43367 21.789 5.18367 22.1054 4.8282C22.621 4.23445 23.6132 4.08602 24.3164 4.50789ZM10.4921 5.62117L10.8437 5.73836L10.8632 6.84774L10.8749 7.9532H13.0038L13.1796 8.28914C13.4179 8.74617 13.4296 9.36727 13.2031 9.90242L13.0546 10.2735H10.7499V12.4727L10.4453 12.6134C9.98822 12.8282 9.14838 12.8165 8.76947 12.6016L8.49213 12.4415V10.2735H6.32807L6.2226 10.0626C5.95307 9.49617 5.94526 8.79305 6.19916 8.18758L6.29291 7.9532H8.55463V6.8282C8.55463 6.20711 8.56244 5.6993 8.57416 5.6993C8.58197 5.6993 8.70307 5.65242 8.8476 5.60164C9.20307 5.47274 10.0507 5.48836 10.4921 5.62117ZM28.789 7.16414C29.789 7.78133 29.9296 9.14852 29.0781 9.97274C28.7812 10.2579 28.2617 10.4688 27.8593 10.4688C27.2343 10.4688 26.5468 10.0313 26.2499 9.43758C26.082 9.11727 26.0507 8.48836 26.1796 8.10945C26.5312 7.04695 27.8359 6.5743 28.789 7.16414ZM24.1914 9.35945C24.7851 9.66414 25.121 10.1837 25.1718 10.8751C25.1992 11.2696 25.1874 11.3438 24.9921 11.7305C24.6445 12.4415 24.039 12.7774 23.2187 12.711C22.2851 12.6329 21.6328 11.8946 21.6484 10.9259C21.6523 10.2227 21.9882 9.69539 22.6132 9.37899C22.9882 9.18758 23.0703 9.17195 23.4765 9.1993C23.7695 9.21102 24.0273 9.27742 24.1914 9.35945Z" fill="#2A7AE4"/>
</svg>
