<svg width="34" height="34" viewBox="0 0 34 34" fill="none" xmlns="http://www.w3.org/2000/svg">
<g clip-path="url(#clip0_26123_41)">
<path d="M21.7149 0.101456C21.086 0.2538 20.5078 0.652238 20.1133 1.18349C19.3594 2.24599 19.4258 3.71083 20.2813 4.69521C20.9649 5.47646 22.1797 5.83583 23.1563 5.54286C24.2188 5.22646 25.0039 4.32802 25.1758 3.23427C25.4024 1.78114 24.3789 0.339738 22.918 0.0663004C22.4571 -0.019637 22.168 -0.0118246 21.7149 0.101456Z" fill="#2A7AE4"/>
<path d="M16.8672 5.37091C16.5469 5.47248 16.2891 5.63654 16.0703 5.88263C15.8828 6.09748 15.6719 6.48029 15.6719 6.60529C15.6719 6.64826 16.7148 6.59357 17.1016 6.53888C17.5313 6.47248 17.0078 6.65216 14.4102 7.43732C12.9297 7.88263 11.6094 8.30841 11.4766 8.38654C10.9844 8.65998 10.9844 8.66388 9.76953 12.7381C9.4375 13.8436 9.16406 14.8279 9.16406 14.9217C9.16406 15.6717 9.84766 16.3358 10.6172 16.3358C11.0898 16.3358 11.6406 15.949 11.8477 15.4842C11.8984 15.3475 12.2539 14.2225 12.625 12.9803C12.9961 11.742 13.3008 10.7186 13.3164 10.7029C13.3477 10.6639 18.1563 9.23029 18.1758 9.25763C18.1875 9.26935 17.4063 9.76935 16.4375 10.3592C15.4648 10.949 14.6172 11.4881 14.543 11.5467C14.4648 11.6131 14.2031 12.3787 13.7852 13.7654C13.4414 14.9295 13.082 16.0154 13.0039 16.1912C12.918 16.3553 12.7109 16.6483 12.5391 16.8319L12.2266 17.1795L13.6523 19.2459C14.4375 20.3865 15.0625 21.3514 15.043 21.3826C15.0156 21.4217 14.1172 22.4842 13.043 23.7537C11.9648 25.0233 11.0313 26.1834 10.957 26.3279C10.7695 26.7147 10.7773 27.2928 10.9844 27.7264C11.2578 28.3084 11.7734 28.6326 12.4531 28.6404C13.2344 28.6483 13.2148 28.66 16.0313 25.3592C17.4922 23.6483 18.6016 22.285 18.6797 22.1131C18.8398 21.7537 18.8594 21.1912 18.7148 20.8514C18.6328 20.66 16.0234 17.0584 15.6133 16.574C15.4063 16.3279 15.6836 16.5467 17.5664 18.1014C19.5234 19.7147 19.8242 19.9998 20.0625 20.4647C20.2891 20.9061 20.3125 21.6561 20.1211 22.2069L19.9688 22.6365L20.7461 25.4451C21.1758 26.992 21.5898 28.3904 21.6602 28.5545C22.1055 29.5858 23.3945 29.8709 24.2305 29.1131C24.6055 28.7811 24.7695 28.4217 24.7813 27.9295C24.7891 27.492 22.5234 19.3045 22.2734 18.8787C22.0664 18.5194 21.8203 18.3592 20.3086 17.5701C19.6172 17.2186 19.0586 16.9061 19.0586 16.8865C19.0586 16.8279 20.7305 12.9881 20.7852 12.9295C20.8125 12.8944 21.0391 13.242 21.2891 13.6912C21.9531 14.9022 22.0586 15.0389 22.4805 15.2459C22.7695 15.3865 22.9102 15.4178 23.1641 15.3944C23.4492 15.367 28.0508 13.5662 28.7617 13.2069C29.9609 12.5975 29.5391 10.7381 28.1953 10.7381C27.8906 10.7381 26.75 11.1444 24.0977 12.1834C24.0195 12.2108 23.8008 11.8983 23.1484 10.8514L22.3047 9.48419L22.4063 9.1756C22.6563 8.44123 22.4375 7.61701 21.875 7.21857C21.6094 7.03107 19.4688 6.05451 18.1875 5.54279C17.6172 5.31232 17.2344 5.26544 16.8672 5.37091Z" fill="#2A7AE4"/>
<path d="M6.80852 23.5469C3.94523 23.7656 3.06242 23.9336 1.95305 24.4687C0.816328 25.0234 0.476484 25.6992 0.902266 26.6015C1.09758 27.0195 2.01945 27.8906 2.82414 28.414C9.46867 32.7578 26.7226 35.5156 32.0273 33.0781C32.5195 32.8515 33.0507 32.3984 33.1757 32.0937C33.703 30.8515 31.9765 29.2265 28.496 27.6797C27.6835 27.3203 26.078 26.6953 26.0429 26.7226C26.039 26.7344 26.0585 26.8281 26.0976 26.9336C26.1366 27.039 26.1913 27.3672 26.2109 27.664C26.2773 28.5547 26.0234 29.3047 25.4413 29.957C25.0234 30.4219 24.5312 30.7109 23.8749 30.8789C23.4218 30.9922 23.2773 31.0039 22.8163 30.9453C21.6562 30.8047 20.6523 30.0273 20.2734 28.9922C20.2226 28.8476 19.9296 27.8437 19.6288 26.7695C19.3046 25.6211 19.0468 24.8047 18.9843 24.7695C18.9335 24.7422 18.8046 24.7031 18.6991 24.6914C18.5155 24.6719 18.3866 24.8047 16.7538 26.7265C14.7421 29.0937 14.4374 29.418 13.9726 29.6836C13.1874 30.1406 12.1405 30.2031 11.2577 29.8437C10.8984 29.6953 10.6913 29.5586 10.3202 29.1914C9.4843 28.3633 9.18352 27.3398 9.46477 26.2656C9.61711 25.6914 9.83977 25.3203 10.5702 24.4492L11.2148 23.6719L10.8046 23.6328C10.2734 23.582 7.2382 23.5156 6.80852 23.5469Z" fill="#2A7AE4"/>
</g>
<defs>
<clipPath id="clip0_26123_41">
<rect width="34" height="34" fill="white"/>
</clipPath>
</defs>
</svg>
